<?xml version="1.0" encoding="utf-8"?>
<!-- Generator: Adobe Illustrator 19.0.0, SVG Export Plug-In . SVG Version: 6.00 Build 0)  -->
<svg version="1.1" id="Layer_1" xmlns="http://www.w3.org/2000/svg" xmlns:xlink="http://www.w3.org/1999/xlink" x="0px" y="0px"
	 width="27px" height="23px" viewBox="0 0 27 23" style="enable-background:new 0 0 27 23;" xml:space="preserve">
<style type="text/css">
	.st0{fill:#FFFFFF;}
</style>
<g id="XMLID_1_">
	<path id="XMLID_7_" class="st0" d="M24.5,22.5h-22c-1,0-1.8-0.8-1.8-1.8c0-1,0.8-1.8,1.8-1.8h22c1,0,1.8,0.8,1.8,1.8
		C26.3,21.7,25.5,22.5,24.5,22.5z M24.5,4.2h-22c-1,0-1.8-0.8-1.8-1.8c0-1,0.8-1.8,1.8-1.8h22c1,0,1.8,0.8,1.8,1.8
		C26.3,3.3,25.5,4.2,24.5,4.2z M24.5,13.3h-11c-1,0-1.8-0.8-1.8-1.8c0-1,0.8-1.8,1.8-1.8h11c1,0,1.8,0.8,1.8,1.8
		C26.3,12.5,25.5,13.3,24.5,13.3z"/>
</g>
</svg>
